<?xml version="1.0" encoding="UTF-8"?>
<!-- Created with Inkscape (http://www.inkscape.org/) -->
<svg width="340" height="50" inkscape:version="1.2.1 (9c6d41e4, 2022-07-14)" sodipodi:docname="safeoidlogo2BLPOZADIE.svg" version="1.1" viewBox="0 0 340 50" xmlns="http://www.w3.org/2000/svg" xmlns:inkscape="http://www.inkscape.org/namespaces/inkscape" xmlns:sodipodi="http://sodipodi.sourceforge.net/DTD/sodipodi-0.dtd" xmlns:xlink="http://www.w3.org/1999/xlink">
 <defs>
  <linearGradient id="linearGradient15413" x1="251.33" x2="251.85" y1="24.59" y2="53.853" gradientTransform="translate(-16.43 -20.871)" gradientUnits="userSpaceOnUse" inkscape:collect="always">
   <stop stop-color="#64e8a3" offset="0"/>
   <stop stop-color="#108d9c" offset="1"/>
  </linearGradient>
 </defs>
 <sodipodi:namedview bordercolor="#000000" borderopacity="0.25" inkscape:current-layer="g10677" inkscape:cx="93.845554" inkscape:cy="97.69411" inkscape:deskcolor="#d1d1d1" inkscape:pagecheckerboard="0" inkscape:pageopacity="0.0" inkscape:showpageshadow="2" inkscape:window-height="1232" inkscape:window-maximized="0" inkscape:window-width="2240" inkscape:window-x="0" inkscape:window-y="28" inkscape:zoom="1.6889452" pagecolor="#ffffff" showgrid="false">
  <inkscape:page x="0" y="0" width="340" height="50"/>
 </sodipodi:namedview>
 <g transform="matrix(1.3333 0 0 1.3333 0 9.3921e-6)" inkscape:groupmode="layer" inkscape:label="Page 1">
  <g>
   <rect x="2.2203" y=".88812" width="250.9" height="35.081" ry="0" fill="#fff" stroke-width="8.504"/>
   <g fill="#003177">
    <path d="m4.9747 23.521h9.3248c-0.01194 1.4457 0.2969 2.3782 0.95038 2.7974 0.33719 0.19843 0.72211 0.33271 1.1533 0.4088 0.43118 0.07012 1.1891 0.12234 2.2678 0.14472 0.54158 0.0179 2.3066 0.02984 5.2965 0.04774 4.1029-0.01194 6.4752-0.03581 7.1227-0.06415 1.2174-0.08803 2.0216-0.23872 2.4065-0.45505 0.54158-0.31481 0.81014-1.0145 0.81014-2.1037 0-0.74599-0.16859-1.2712-0.50727-1.574-0.4655-0.41328-1.5681-0.63558-3.3107-0.66393-1.1995 0-3.718-0.08803-7.5404-0.25662-3.9463-0.17456-6.505-0.27452-7.6822-0.30287-3.0481-0.08803-5.204-0.41477-6.4513-0.99067-1.6024-0.72957-2.6512-1.9754-3.1466-3.7419-0.27452-0.97276-0.41477-2.2499-0.41477-3.8284 0-3.3226 0.67736-5.665 2.035-7.0287 1.019-1.0324 2.5572-1.7143 4.6266-2.0455 1.865-0.28646 6.3066-0.43267 13.323-0.43267 4.5639 0 7.7866 0.12234 9.668 0.36852 2.4826 0.33122 4.273 0.90264 5.3681 1.7188 1.48 1.1369 2.2201 3.1645 2.2201 6.0902 0 0.31481-6e-3 0.81611-0.02238 1.5039h-9.3188c-0.03581-0.7057-0.08803-1.1891-0.16412-1.4636-0.21484-0.80417-0.92651-1.2533-2.1276-1.3517-1.0653-0.08803-3.6538-0.13428-7.7732-0.13428-4.0686 0-6.4811 0.11041-7.239 0.32674-0.85042 0.25662-1.2712 0.92055-1.2712 1.9992 0 1.031 0.44312 1.6606 1.3413 1.8933 0.75792 0.1865 4.1551 0.36106 10.199 0.53711 5.4785 0.13875 8.9682 0.31928 10.478 0.53562 1.5278 0.21634 2.7452 0.53562 3.6434 0.9668 0.90264 0.43267 1.6248 1.0444 2.1619 1.8306 0.82208 1.1593 1.2294 3.0302 1.2294 5.6128 0 2.878-0.40134 4.9936-1.207 6.3409-0.7982 1.3338-2.1096 2.2439-3.9269 2.7333-1.7904 0.48937-6.7198 0.73405-14.787 0.73405-4.9011 0-8.4386-0.12234-10.612-0.36702-2.6512-0.28646-4.5565-0.84595-5.7172-1.6785-1.2473-0.8922-1.9873-2.1455-2.2201-3.7657-0.12234-0.78627-0.18053-1.7188-0.18053-2.7915z"/>
    <path d="m75.132 21.843-6.0783-11.12h-1.9232l-6.0843 11.12zm6.0843 11.4-2.7035-4.9712h-20.888l-2.7094 4.9712h-10.987l16.75-29.356h14.942l16.518 29.356z"/>
    <path d="m93.572 3.8867h33.377v6.9004h-23.755v5.5486h22.6v6.7542h-22.6v10.153h-9.6217z"/>
    <path d="m129.15 3.8867h34.975v6.9004h-25.486v4.2372h24.192v6.4513h-24.192v4.7087h25.672v7.0585h-35.161z"/>
    <path d="m188.11 11.09c-4.825 0-7.7568 0.12234-8.7892 0.36702-1.2473 0.29839-2.0515 0.98022-2.4066 2.041-0.33868 1.0489-0.50727 2.978-0.50727 5.7859 0 1.8187 0.1 3.1302 0.30287 3.9343 0.38493 1.492 1.5502 2.3424 3.4912 2.5587 1.4338 0.17456 4.1969 0.26259 8.2819 0.26259 4.085 0 6.8481-0.08803 8.2819-0.26259 1.941-0.21634 3.1003-1.0668 3.4673-2.5587 0.21485-0.81611 0.32675-2.0858 0.32675-3.806 0-2.1096-0.0642-3.6076-0.1865-4.4923-0.21634-1.4756-0.71167-2.4603-1.48-2.9496-0.69377-0.45505-2.1514-0.73405-4.3715-0.83849-0.80417-0.02387-2.9377-0.04177-6.411-0.04177m0.64752-7.6344c6.6318 0 11.23 0.15815 13.789 0.47146 3.6837 0.46102 5.944 2.0873 6.778 4.8847 0.57143 1.9231 0.85639 5.1756 0.85639 9.762 0 4.5744-0.28496 7.8209-0.85639 9.7441-0.83401 2.7915-3.0943 4.4237-6.778 4.8787-2.5468 0.31481-7.2331 0.47146-14.063 0.47146-6.8183 0-11.505-0.15666-14.063-0.47146-3.6882-0.45505-5.944-2.0873-6.778-4.8787-0.57143-1.9232-0.85639-5.1697-0.85639-9.7441 0-4.6042 0.28496-7.8567 0.85639-9.762 0.83401-2.7974 3.0899-4.4237 6.778-4.8847 2.5766-0.31331 7.3554-0.47146 14.338-0.47146"/>
   </g>
   <path d="m241.41 18.504c-0.65348-0.40731-1.4054-0.62364-2.1693-0.61768-1.0071-0.04625-1.9754 0.35509-2.6512 1.1011-0.6878 0.82804-1.0369 1.8829-0.9847 2.9616-0.0582 1.0772 0.29094 2.138 0.9847 2.972 0.68183 0.73405 1.6501 1.1309 2.6512 1.0832 0.75792 0 1.5039-0.19694 2.1574-0.58187 0.16263-0.08206 0.30287-0.19246 0.40134-0.34464 0.0701-0.12234 0.10593-0.25662 0.1-0.39537v-5.4203c0.0119-0.14621-0.0298-0.29243-0.0821-0.42521-0.0925-0.15218-0.23872-0.26855-0.40134-0.33271zm6.1768-15.223h-24.856c-1.5621 0-2.8258 1.2652-2.8258 2.8258v24.858c0 1.5606 1.2637 2.8258 2.8258 2.8258h24.856c1.5621 6e-3 2.8392-1.2592 2.8392-2.8258v-24.858c0-1.5666-1.2771-2.8318-2.8392-2.8258zm-22.63 5.5248c1.4338-1.4517 3.9045-0.44312 3.9164 1.5964-0.0343 2.0231-2.4767 3.0197-3.9164 1.5979-0.88027-0.88026-0.88027-2.314 0-3.1943zm5.6188 19.215c0 0.39686-0.1865 0.58336-0.55949 0.58336h-5.8918c-0.33868 0.04625-0.63558-0.24618-0.58933-0.58336v-1.2354c0-0.36702 0.19843-0.55352 0.58933-0.55352h0.6878c0.31928 0.04625 0.59977-0.22827 0.55949-0.54904v-7.3136c0.0403-0.32077-0.23424-0.59977-0.55949-0.54755h-0.75196c-0.32674 0.04028-0.60723-0.22678-0.55949-0.55352v-1.3995c0-0.40134 0.1865-0.58187 0.55949-0.58187h2.4468c0.85192 0 1.4457 0.15666 1.7725 0.47146 0.32674 0.31481 0.48936 0.90413 0.48936 1.7665v8.1581c0 0.36852 0.17456 0.54904 0.52518 0.54904h0.72211c0.32077-0.04177 0.59977 0.22678 0.55352 0.55352zm16.43 0c0.0462 0.33719-0.24021 0.62364-0.57739 0.58336h-1.7367c-0.51324 0.02835-1.0205-0.05968-1.492-0.24618-0.35061-0.1865-0.60126-0.50578-0.69376-0.89071-0.50131 0.42521-1.0668 0.77433-1.6665 1.0369-0.72808 0.2969-1.5099 0.44312-2.2961 0.42521-0.88026 6e-3 -1.7605-0.16262-2.5707-0.50727-0.75792-0.32525-1.4398-0.81014-1.9992-1.4099-0.58187-0.63558-1.0369-1.3816-1.3279-2.1977-0.32674-0.92054-0.48489-1.8933-0.47295-2.872-0.0119-0.96829 0.14621-1.9291 0.47295-2.8452 0.29094-0.81014 0.74002-1.5606 1.3114-2.2081 0.55353-0.61171 1.2354-1.1011 1.9978-1.4218 0.81014-0.34465 1.6785-0.51324 2.5528-0.50727 1.2249-6e-3 2.414 0.40731 3.3748 1.1652v-4.9011c0.0403-0.32674-0.23871-0.59977-0.55949-0.55352h-0.72211c-0.3909 0-0.58336-0.1865-0.58336-0.55352v-1.3935c-0.0462-0.34315 0.24468-0.63409 0.58336-0.58784h2.4349c0.85788 0 1.4517 0.15666 1.7844 0.47146 0.33122 0.31481 0.49534 0.90413 0.49534 1.7725v15.303c-0.0418 0.32077 0.23274 0.60126 0.55352 0.54904h0.55949c0.39686 0 0.58783 0.1865 0.58783 0.55352z" fill="url(#linearGradient15413)"/>
  </g>
 </g>
</svg>
